<svg width="16" height="16" viewBox="0 0 16 16" fill="none" xmlns="http://www.w3.org/2000/svg">
<path d="M12.7775 6.00586C12.7775 6.00586 12.433 10.278 12.2332 12.0775C12.1381 12.937 11.6072 13.4407 10.7375 13.4565C9.08258 13.4864 7.42574 13.4883 5.77144 13.4534C4.93478 13.4363 4.41273 12.9263 4.31949 12.082C4.11841 10.2666 3.77588 6.00586 3.77588 6.00586" stroke="#D63D23" stroke-width="1.5" stroke-linecap="round" stroke-linejoin="round"/>
<path d="M13.6552 3.95876H2.89844" stroke="#D63D23" stroke-width="1.5" stroke-linecap="round" stroke-linejoin="round"/>
<path d="M11.5822 3.95825C11.0843 3.95825 10.6555 3.6062 10.5578 3.11841L10.4036 2.34708C10.3085 1.99123 9.98625 1.74512 9.61898 1.74512H6.93391C6.56665 1.74512 6.24441 1.99123 6.14926 2.34708L5.99513 3.11841C5.89744 3.6062 5.46864 3.95825 4.9707 3.95825" stroke="#D63D23" stroke-width="0.951476" stroke-linecap="round" stroke-linejoin="round"/>
</svg>
