<svg width="15" height="15" viewBox="0 0 15 15" fill="none" xmlns="http://www.w3.org/2000/svg">
<path d="M7.38093 9.62281C8.97956 7.99434 10.4993 6.45113 12.017 4.91005C12.3367 4.5818 12.6617 4.24929 12.9996 3.93382C13.3832 3.5768 13.817 3.57466 14.1314 3.90398C14.4224 4.20772 14.4245 4.66067 14.0877 4.99851C12.0436 7.04689 9.99309 9.08887 7.93618 11.1245C7.58022 11.4772 7.16351 11.4676 6.80329 11.1106C4.7478 9.0736 2.69765 7.03125 0.652827 4.98359C0.246775 4.57647 0.252104 4.15763 0.613394 3.82085C0.943778 3.51178 1.3882 3.55228 1.78572 3.94874C3.49732 5.65395 5.20608 7.35915 6.912 9.06436C7.05054 9.20397 7.16564 9.3649 7.38093 9.62281Z" fill="black"/>
</svg>
