<svg width="20" height="20" viewBox="0 0 20 20" fill="none" xmlns="http://www.w3.org/2000/svg">
<path d="M14.7264 0C14.8164 0.185778 14.9782 0.368889 14.9834 0.556444C15.0102 1.47289 14.986 2.392 14.9999 3.30933C15.0059 3.71911 14.819 3.85689 14.4478 3.85867C13.7998 3.86311 13.1517 3.87289 12.5053 3.91111C11.9057 3.94667 11.5683 4.272 11.5397 4.88978C11.5051 5.64 11.5311 6.39289 11.5311 7.20089C12.4301 7.20089 13.304 7.20089 14.1779 7.20089C14.8164 7.20089 14.8926 7.28 14.8934 7.94222C14.8934 8.80089 14.8934 9.65956 14.8934 10.5173C14.8934 11.2098 14.819 11.2871 14.1632 11.2871C13.3014 11.2871 12.4396 11.2871 11.5233 11.2871C11.5233 11.4782 11.5233 11.6356 11.5233 11.7929C11.5233 14.2942 11.5302 16.7956 11.512 19.2969C11.5103 19.5316 11.3502 19.7653 11.2637 20H7.7162C7.42375 19.8569 7.44106 19.5867 7.44106 19.3164C7.44279 16.8302 7.44192 14.3431 7.44192 11.8569C7.44192 11.6836 7.44192 11.5102 7.44192 11.288C6.63551 11.288 5.87582 11.2898 5.117 11.288C4.58661 11.2871 4.50614 11.2098 4.50441 10.6791C4.50095 9.70133 4.51133 8.72445 4.50008 7.74756C4.49575 7.34578 4.66534 7.19022 5.04778 7.19644C5.82391 7.20889 6.6009 7.2 7.44192 7.2C7.44192 6.70667 7.42029 6.23733 7.44711 5.77067C7.49384 4.94756 7.47047 4.10311 7.65304 3.31022C8.07442 1.48356 9.4692 0.301333 11.2845 0.0782222C11.3667 0.0684444 11.4446 0.0266667 11.5242 0C12.5919 0 13.6587 0 14.7264 0Z" fill="#939393"/>
</svg>
