<svg width="20" height="20" viewBox="0 0 20 20" fill="none" xmlns="http://www.w3.org/2000/svg">
<path d="M0.0148211 9.94981C0.0148211 8.41093 -0.0157258 6.87205 0.0219487 5.33419C0.089152 2.55792 2.09914 0.397804 4.85651 0.0973375C5.36053 0.0425226 5.87066 0.0110548 6.37774 0.0100397C8.9895 0.00191901 11.6023 -0.0082319 14.214 0.0110548C17.0651 0.0323717 19.1942 1.66667 19.8235 4.30184C19.9243 4.72514 19.9813 5.16873 19.9833 5.6042C19.9976 8.52969 20.0119 11.4552 19.9844 14.3807C19.9579 17.2514 18.2758 19.2663 15.4553 19.8571C15.0276 19.9464 14.5806 19.9809 14.1428 19.983C11.3783 19.9941 8.61276 20.0165 5.84826 19.9799C3.41775 19.9474 1.5106 18.9679 0.494408 16.6687C0.221522 16.0515 0.0647144 15.342 0.036204 14.6679C-0.029981 13.0986 0.0148211 11.5242 0.0148211 9.95082C0.0148211 9.95082 0.0138029 9.95082 0.0127847 9.95082L0.0148211 9.94981ZM1.83949 9.95184C1.83949 9.95184 1.83745 9.95184 1.83644 9.95184C1.83644 11.3719 1.812 12.7931 1.84153 14.2132C1.89447 16.6575 3.28843 18.0969 5.73728 18.1416C8.56898 18.1934 11.4037 18.1913 14.2354 18.1436C16.7433 18.102 18.2462 16.5134 18.2493 14.0142C18.2523 11.2745 18.2605 8.53477 18.2462 5.79504C18.234 3.48266 16.6934 1.88491 14.3749 1.85141C11.4913 1.8098 8.60665 1.81284 5.72302 1.84938C3.34545 1.87984 1.90364 3.32533 1.84458 5.69049C1.80894 7.1106 1.83847 8.53172 1.83847 9.95184H1.83949Z" fill="#939393"/>
<path d="M15.1578 9.89194C15.2393 12.651 12.9146 15.0537 10.1003 15.1176C7.29299 15.1816 4.90829 12.922 4.81665 10.1112C4.72501 7.28011 6.98854 4.92104 9.90373 4.80938C12.6804 4.70381 15.0733 7.01822 15.1588 9.89092L15.1578 9.89194ZM9.97908 13.2783C11.7905 13.2854 13.3128 11.7719 13.3158 9.95894C13.3199 8.17136 11.8374 6.67613 10.028 6.6406C8.24198 6.60609 6.67594 8.13685 6.65965 9.93457C6.64438 11.7262 8.17681 13.2712 9.97806 13.2783H9.97908Z" fill="#939393"/>
<path d="M16.5222 4.69865C16.515 5.33816 15.9978 5.83657 15.3492 5.82743C14.7036 5.81829 14.1833 5.29248 14.1965 4.66312C14.2098 4.01752 14.7189 3.5384 15.3858 3.54449C16.0456 3.55058 16.5303 4.0429 16.5232 4.69966L16.5222 4.69865Z" fill="#939393"/>
</svg>
