<svg width="21" height="20" viewBox="0 0 21 20" fill="none" xmlns="http://www.w3.org/2000/svg">
<path d="M16.1908 19.9928C16.1908 19.6505 16.1918 19.3477 16.1908 19.046C16.1817 16.8295 16.1715 14.6119 16.1604 12.3953C16.1604 12.2439 16.1513 12.0895 16.1249 11.9402C15.8738 10.5119 15.1862 9.92169 13.8394 9.96842C12.5655 10.0131 11.6673 10.8888 11.6177 12.3242C11.5417 14.4879 11.565 16.6547 11.5468 18.8205C11.5438 19.2065 11.5468 19.5915 11.5468 19.9999H7.46484V6.66286H11.3696V8.28618C11.964 7.80162 12.4926 7.21548 13.1478 6.86704C14.7427 6.01881 16.4166 6.11531 18.0135 6.87212C19.5193 7.58626 20.0854 9.00337 20.1806 10.5332C20.3223 12.8097 20.292 15.0964 20.3264 17.379C20.3396 18.2384 20.3284 19.0989 20.3284 19.9908H16.1908V19.9928Z" fill="#939393"/>
<path d="M0.691406 6.66284H4.77437V19.9979H0.691406V6.66284Z" fill="#939393"/>
<path d="M2.73904 4.78871C1.37401 4.79175 0.335036 3.76372 0.333011 2.40451C0.330985 1.04734 1.37502 -0.00202875 2.72487 2.94515e-06C4.04231 0.00203464 5.10356 1.05344 5.1147 2.36591C5.12584 3.7241 4.08484 4.78464 2.73904 4.78871Z" fill="#939393"/>
</svg>
