<svg width="19" height="19" viewBox="0 0 19 19" fill="none" xmlns="http://www.w3.org/2000/svg">
<path d="M13.6495 14.9274C10.01 17.8381 4.93767 17.0096 2.2899 13.6905C-0.28271 10.4652 -0.0611267 5.93625 2.82394 2.96949C5.63888 0.0756562 10.2343 -0.268755 13.4498 2.19204C15.2438 3.5652 16.3113 5.38429 16.5924 7.62857C16.8717 9.86332 16.2743 11.8737 14.8567 13.7113C14.9308 13.759 15.0127 13.7937 15.071 13.8521C16.1099 14.8859 17.1449 15.9236 18.1827 16.9585C18.4464 17.2216 18.5664 17.5251 18.4626 17.893C18.2871 18.5151 17.5533 18.7535 17.0451 18.3552C16.9789 18.3036 16.92 18.243 16.8605 18.1836C15.8334 17.1576 14.8062 16.1317 13.7808 15.1041C13.7314 15.0547 13.6966 14.9913 13.6495 14.9263V14.9274ZM14.8657 8.63656C14.8797 5.17507 12.0839 2.36593 8.6081 2.34854C5.12784 2.33115 2.31121 5.12178 2.29551 8.60178C2.28036 12.0846 5.08689 14.9083 8.57275 14.9179C12.0395 14.9274 14.8517 12.1199 14.8657 8.63656Z" fill="white"/>
</svg>
