<svg width="21" height="20" viewBox="0 0 21 20" fill="none" xmlns="http://www.w3.org/2000/svg">
<path d="M6.50269 14.4246C4.6323 14.1636 3.17145 13.0392 2.80872 11.5328H4.44418C4.45678 11.4948 4.46848 11.4578 4.48109 11.4199C3.56119 11.1525 2.78082 10.6775 2.19306 9.927C1.6107 9.18283 1.32087 8.33389 1.30017 7.39284C1.87983 7.55359 2.44148 7.70893 3.00314 7.86427C1.29117 6.24948 0.897827 4.43601 1.86722 2.24955C4.13725 4.90834 6.95543 6.37953 10.4379 6.61796C10.338 5.75276 10.3407 4.94176 10.6458 4.14972C11.6818 1.45841 15.1283 0.617601 17.2543 2.56112C17.4775 2.76523 17.6692 2.82032 17.9266 2.7264C18.6485 2.46449 19.3686 2.19716 20.1039 1.92713C19.8186 2.81039 19.2345 3.48412 18.5126 4.11721C19.203 3.93387 19.8933 3.75054 20.5837 3.5672C20.6116 3.59159 20.6386 3.61597 20.6665 3.64036C20.131 4.18675 19.626 4.76926 19.0463 5.26417C18.7457 5.52156 18.6539 5.76089 18.6548 6.13479C18.6719 11.0207 15.6071 15.5634 11.1193 17.2396C7.76101 18.494 3.90323 18.2222 0.666504 16.2317C1.38298 16.1875 2.06434 16.2019 2.72321 16.0881C3.39468 15.9716 4.06794 15.7847 4.69891 15.5264C5.34157 15.2636 5.93383 14.877 6.54769 14.5447C6.53239 14.504 6.51799 14.4643 6.50269 14.4237V14.4246Z" fill="#1DA1F2"/>
</svg>
