<svg width="21" height="22" viewBox="0 0 21 22" fill="none" xmlns="http://www.w3.org/2000/svg">
<path d="M10.781 20.029C12.4918 19.9978 14.2426 19.8088 15.9121 19.1299C16.422 18.9223 16.9086 18.6694 17.3122 18.2728C17.5533 18.0358 17.668 17.761 17.6506 17.4083C17.5591 15.5515 16.9132 13.9443 15.6517 12.61C15.4441 12.391 15.3016 12.1508 15.359 11.8346C15.4164 11.5165 15.5937 11.2942 15.9011 11.1978C16.2196 11.0973 16.4832 11.1991 16.7114 11.434C17.5056 12.2532 18.1218 13.1969 18.5524 14.2664C18.9411 15.2314 19.1325 16.2403 19.1983 17.2845C19.266 18.3579 18.8044 19.1339 18.0071 19.7449C17.0808 20.455 16.0165 20.8423 14.911 21.1191C12.9172 21.6189 10.897 21.7334 8.85752 21.5258C7.324 21.3694 5.82593 21.0619 4.42456 20.3718C4.09259 20.2087 3.77286 20.0104 3.47054 19.7948C2.5494 19.1406 2.10978 18.2595 2.21098 17.0749C2.39663 14.9013 3.18434 13.0239 4.66629 11.4626C4.92349 11.1918 5.26706 11.1199 5.57003 11.263C5.8717 11.4054 6.0696 11.7242 6.01029 12.0689C5.97871 12.2526 5.88524 12.4529 5.76018 12.5867C4.68821 13.734 4.03715 15.0896 3.81992 16.6676C3.79865 16.8233 3.80381 16.9843 3.77351 17.1374C3.65555 17.735 3.88889 18.163 4.35237 18.501C5.10784 19.0514 5.96581 19.3442 6.84828 19.5725C8.11686 19.9006 9.41188 20.0144 10.781 20.0284V20.029Z" fill="white"/>
<path d="M5.29944 6.46044C5.29815 3.38846 7.71542 0.897461 10.6987 0.897461C13.7251 0.897461 16.1069 3.38779 16.1056 6.55228C16.1043 9.56038 13.6626 12.0547 10.7193 12.054C7.70833 12.0534 5.30073 9.56836 5.30008 6.45978L5.29944 6.46044ZM6.84263 6.46044C6.8452 8.66128 8.58435 10.4641 10.6999 10.4588C12.831 10.4535 14.5611 8.6646 14.5618 6.4651C14.5624 4.28024 12.811 2.48669 10.6813 2.49002C8.59015 2.49335 6.84069 4.30286 6.84263 6.46111V6.46044Z" fill="white"/>
</svg>
